HIERARCHY
ROOT Hips
{
	OFFSET 0.00000 0.00000 0.00000
	CHANNELS 6 Xposition Yposition Zposition Zrotation Yrotation Xrotation 
	JOINT LHipJoint
	{
		OFFSET 0 0 0
		CHANNELS 3 Zrotation Yrotation Xrotation
		JOINT LeftUpLeg
		{
			OFFSET 1.44361 -1.63093 0.70831
			CHANNELS 3 Zrotation Yrotation Xrotation
			JOINT LeftLeg
			{
				OFFSET 2.20103 -6.04728 0.00000
				CHANNELS 3 Zrotation Yrotation Xrotation
				JOINT LeftFoot
				{
					OFFSET 2.54154 -6.98283 0.00000
					CHANNELS 3 Zrotation Yrotation Xrotation
					JOINT LeftToeBase
					{
						OFFSET 0.05971 -0.16406 1.77582
						CHANNELS 3 Zrotation Yrotation Xrotation
						End Site
						{
							OFFSET 0.00000 -0.00000 0.90832
						}
					}
				}
			}
		}
	}
	JOINT RHipJoint
	{
		OFFSET 0 0 0
		CHANNELS 3 Zrotation Yrotation Xrotation
		JOINT RightUpLeg
		{
			OFFSET -1.65838 -1.63093 0.70830
			CHANNELS 3 Zrotation Yrotation Xrotation
			JOINT RightLeg
			{
				OFFSET -2.26926 -6.23475 0.00000
				CHANNELS 3 Zrotation Yrotation Xrotation
				JOINT RightFoot
				{
					OFFSET -2.34808 -6.45129 0.00000
					CHANNELS 3 Zrotation Yrotation Xrotation
					JOINT RightToeBase
					{
						OFFSET -0.18633 -0.51195 1.68539
						CHANNELS 3 Zrotation Yrotation Xrotation
						End Site
						{
							OFFSET -0.00000 -0.00000 0.88927
						}
					}
				}
			}
		}
	}
	JOINT LowerBack
	{
		OFFSET 0 0 0
		CHANNELS 3 Zrotation Yrotation Xrotation
		JOINT Spine
		{
			OFFSET -0.10393 2.01691 0.06920
			CHANNELS 3 Zrotation Yrotation Xrotation
			JOINT Spine1
			{
				OFFSET 0.04092 2.01302 -0.05283
				CHANNELS 3 Zrotation Yrotation Xrotation
				JOINT Neck
				{
					OFFSET 0 0 0
					CHANNELS 3 Zrotation Yrotation Xrotation
					JOINT Neck1
					{
						OFFSET -0.02870 1.58978 -0.03113
						CHANNELS 3 Zrotation Yrotation Xrotation
						JOINT Head
						{
							OFFSET 0.11532 1.54326 -0.29195
							CHANNELS 3 Zrotation Yrotation Xrotation
							End Site
							{
								OFFSET 0.04056 1.59999 -0.09535
							}
						}
					}
				}
				JOINT LeftShoulder
				{
					OFFSET 0 0 0
					CHANNELS 3 Zrotation Yrotation Xrotation
					JOINT LeftArm
					{
						OFFSET 3.30641 1.15764 0.01104
						CHANNELS 3 Zrotation Yrotation Xrotation
						JOINT LeftForeArm
						{
							OFFSET 4.63208 -0.00000 0.00000
							CHANNELS 3 Zrotation Yrotation Xrotation
							JOINT LeftHand
							{
								OFFSET 3.41924 -0.00000 -0.00000
								CHANNELS 3 Zrotation Yrotation Xrotation
								JOINT LeftFingerBase
								{
									OFFSET 0 0 0
									CHANNELS 3 Zrotation Yrotation Xrotation
									JOINT LeftHandIndex1
									{
										OFFSET 0.62537 -0.00000 -0.00000
										CHANNELS 3 Zrotation Yrotation Xrotation
										End Site
										{
											OFFSET 0.50419 -0.00000 -0.00000
										}
									}
								}
								JOINT LThumb
								{
									OFFSET 0 0 0
									CHANNELS 3 Zrotation Yrotation Xrotation
									End Site
									{
										OFFSET 0.51189 -0.00000 0.51189
									}
								}
							}
						}
					}
				}
				JOINT RightShoulder
				{
					OFFSET 0 0 0
					CHANNELS 3 Zrotation Yrotation Xrotation
					JOINT RightArm
					{
						OFFSET -3.78081 1.02180 -0.16609
						CHANNELS 3 Zrotation Yrotation Xrotation
						JOINT RightForeArm
						{
							OFFSET -4.40640 -0.00000 -0.00000
							CHANNELS 3 Zrotation Yrotation Xrotation
							JOINT RightHand
							{
								OFFSET -3.44675 -0.00000 0.00000
								CHANNELS 3 Zrotation Yrotation Xrotation
								JOINT RightFingerBase
								{
									OFFSET 0 0 0
									CHANNELS 3 Zrotation Yrotation Xrotation
									JOINT RightHandIndex1
									{
										OFFSET -0.51367 -0.00000 -0.00000
										CHANNELS 3 Zrotation Yrotation Xrotation
										End Site
										{
											OFFSET -0.41414 -0.00000 -0.00000
										}
									}
								}
								JOINT RThumb
								{
									OFFSET 0 0 0
									CHANNELS 3 Zrotation Yrotation Xrotation
									End Site
									{
										OFFSET -0.42046 -0.00000 0.42046
									}
								}
							}
						}
					}
				}
			}
		}
	}
}
MOTION
Frames: 8
Frame Time: .0083333
7.0522 16.4803 34.8377 0 0 0 0 0 0 -21 0 0 0 0 0 0 0 0 0 0 0 0 0 0 21 0 0 0 0 0 0 0 0 0 0 0 0 0 0 0 0 0 0 0 0 0 0 -16 0 0 21 0 0 11 0 0 0 -8 0 0 0 0 0 0 0 0 0 0 0 0 0 0 0 0 0 0 0 0 8 0 0 0 0 0 0 0 0 0 0 0 0 0 0 0 0 0
7.0522 16.4803 34.8377 -179.1770 2.1153 -174.9930 0.0000 0.0000 0.0000 -18.6422 -13.3033 -9.6945 2.2561 9.3803 26.9923 1.7333 -1.8748 -24.3779 9.6864 -17.2297 -58.4348 0.0000 0.0000 0.0000 24.2939 2.5445 -4.4731 -0.4348 -4.2312 11.7279 -0.7020 3.9835 -14.9814 -1.2406 7.0628 -19.9015 -4.1272 0.8131 -6.6363 2.5604 1.3414 1.0237 5.1418 0.5331 4.6398 -5.1193 -1.0226 -7.0435 4.7926 -3.7592 25.1161 2.0296 -2.4790 9.1859 0.0000 -0.0000 0.0000 -89.6882 -5.8367 21.7539 8.8341 -14.8956 -1.1571 -0.0000 -0.0000 32.8203 33.5314 -18.3371 -11.7764 -7.1250 0.0000 -0.0000 3.4895 8.3297 -2.9528 0.0000 -0.0000 0.0000 90.7003 -5.7308 -16.0645 -12.4110 20.4181 -2.2436 0.0000 0.0000 21.5492 -23.4547 -38.2847 15.0462 7.1250 -0.0000 -0.0000 16.8947 -70.0221 -10.2045
7.0421 16.4839 34.8536 -179.4810 2.3546 -175.0030 0.0000 0.0000 0.0000 -19.0597 -13.2134 -9.5984 2.2138 9.2978 26.7315 1.7339 -1.7410 -24.4163 9.6730 -17.2218 -58.3896 0.0000 0.0000 0.0000 23.9357 2.8328 -4.5652 -0.4501 -4.3042 11.9340 -0.7140 3.9584 -15.1145 -1.2484 7.0839 -19.9643 -4.4447 0.6509 -6.6376 2.5458 1.1487 1.0649 5.2892 0.4248 4.7019 -5.1534 -0.8584 -7.2352 4.8580 -3.5926 25.4428 2.0721 -2.4137 9.3282 -0.0000 -0.0000 0.0000 -89.8733 -6.0347 21.6973 8.8299 -14.8889 -1.1560 -0.0000 -0.0000 33.1189 34.4849 -17.7036 -11.7983 -7.1250 0.0000 -0.0000 4.1955 8.8563 -3.5093 -0.0000 -0.0000 0.0000 90.7048 -5.8487 -16.0033 -12.4672 20.5016 -2.2633 0.0000 0.0000 21.5010 -23.9808 -38.4573 15.4642 7.1250 -0.0000 -0.0000 16.4367 -70.3543 -10.0436
7.0319 16.4870 34.8709 -179.6870 2.4984 -174.9830 0.0000 0.0000 0.0000 -19.3286 -13.1411 -9.5135 2.1661 9.2037 26.4347 1.7265 -1.5245 -24.4194 9.7332 -17.2570 -58.5928 0.0000 0.0000 0.0000 23.6879 3.0692 -4.6817 -0.4618 -4.3592 12.0896 -0.7235 3.9344 -15.2201 -1.2071 6.9701 -19.6270 -4.6163 0.5408 -6.6395 2.4960 1.0154 1.0663 5.3210 0.3527 4.7194 -5.0240 -0.6871 -7.3191 4.9360 -3.4642 25.7704 2.0880 -2.3555 9.4508 -0.0000 0.0000 0.0000 -89.9864 -6.2103 21.5844 8.7437 -14.7510 -1.1340 -0.0000 -0.0000 33.8063 35.3764 -17.1002 -11.7930 -7.1250 0.0000 -0.0000 4.8611 9.3676 -4.0199 -0.0000 0.0000 0.0000 90.9034 -6.0118 -16.4630 -12.5188 20.5781 -2.2814 0.0000 0.0000 21.7826 -24.0516 -38.2836 15.4568 7.1250 -0.0000 -0.0000 16.1148 -70.2149 -9.7937
7.0242 16.4908 34.8881 -179.7760 2.6614 -174.9700 0.0000 0.0000 0.0000 -19.4243 -12.9787 -9.4424 2.1136 9.0989 26.1051 1.7206 -1.4070 -24.4084 9.7485 -17.2660 -58.6443 0.0000 0.0000 0.0000 23.5840 3.3433 -4.7588 -0.4708 -4.4007 12.2068 -0.7314 3.9233 -15.3063 -1.1266 6.7419 -18.9531 -4.6778 0.5339 -6.5818 2.4529 1.0091 1.0134 5.3073 0.3520 4.6318 -4.6466 -3.0570 -7.3038 4.3559 -2.6030 26.3928 2.1752 -0.4310 9.6483 -0.0000 -0.0000 0.0000 -90.1147 -6.3244 21.3478 8.6437 -14.5908 -1.1087 -0.0000 -0.0000 34.8001 36.1744 -17.2502 -12.2343 -7.1250 0.0000 -0.0000 5.3481 9.0138 -4.4642 -0.0000 -0.0000 0.0000 91.1873 -6.1151 -17.6893 -12.3820 20.3751 -2.2335 0.0000 0.0000 22.3297 -25.1550 -37.7991 16.0568 7.1250 -0.0000 -0.0000 14.0396 -70.1152 -8.4836
7.0180 16.4956 34.9013 -179.8090 2.8237 -174.9570 0.0000 0.0000 0.0000 -19.4435 -12.7745 -9.3814 2.0586 8.9870 25.7548 1.7054 -1.2556 -24.3394 9.7940 -17.2924 -58.7977 0.0000 0.0000 0.0000 23.5437 3.6127 -4.7871 -0.4753 -4.4214 12.2652 -0.7382 3.9616 -15.3768 -1.0612 6.5495 -18.3874 -4.6960 0.5660 -6.4915 2.4273 1.0501 0.9049 5.2902 0.3802 4.4619 -4.2827 -2.9811 -7.6535 4.2477 -2.4157 27.2150 2.1168 -0.2693 9.9962 0.0000 -0.0000 0.0000 -90.2644 -6.2121 21.4022 8.7095 -14.6963 -1.1253 -0.0000 -0.0000 35.2214 36.8928 -17.8143 -12.9332 -7.1250 0.0000 -0.0000 5.7109 8.1787 -4.8653 0.0000 -0.0000 0.0000 91.4598 -6.2167 -19.0606 -12.1791 20.0727 -2.1634 0.0000 0.0000 23.1570 -25.6633 -37.8814 16.4376 7.1250 -0.0000 -0.0000 13.4572 -70.3589 -8.2001
7.0105 16.5012 34.9115 -179.7850 2.9377 -174.9400 0.0000 0.0000 0.0000 -19.4101 -12.5782 -9.3044 2.0011 8.8684 25.3844 1.6755 -1.1013 -24.1635 9.8441 -17.3213 -58.9661 0.0000 0.0000 0.0000 23.5634 3.8368 -4.7817 -0.4750 -4.4200 12.2613 -0.7391 3.9411 -15.3881 -1.0308 6.4579 -18.1190 -4.6344 0.5946 -6.4568 2.4252 1.0825 0.8366 5.2539 0.4028 4.3676 -3.8285 -2.8505 -8.2120 4.0683 -2.1525 28.0796 2.0276 -0.0721 10.4015 -0.0000 0.0000 0.0000 -90.4595 -6.1256 21.5103 8.8093 -14.8559 -1.1507 -0.0000 -0.0000 35.2212 37.4610 -18.4799 -13.6516 -7.1250 0.0000 -0.0000 5.9533 7.2490 -5.1833 -0.0000 0.0000 0.0000 91.6810 -6.2256 -20.6378 -11.9640 19.7507 -2.0901 0.0000 0.0000 24.7175 -24.4320 -38.1102 15.6624 7.1250 -0.0000 -0.0000 15.3898 -70.1755 -9.3325
7.0028 16.5067 34.9193 -179.8090 3.0359 -174.9700 0.0000 0.0000 0.0000 -19.4437 -12.3626 -9.2072 1.9557 8.7733 25.0886 1.6368 -0.9831 -23.9106 9.8387 -17.3182 -58.9481 0.0000 0.0000 0.0000 23.5221 3.9803 -4.7186 -0.4719 -4.4057 12.2208 -0.7313 3.9102 -15.3067 -0.9801 6.3019 -17.6629 -4.6238 0.5809 -6.4859 2.4601 1.0640 0.8545 5.2841 0.3922 4.4048 -4.3276 -3.1756 -8.0872 4.2034 -2.3780 29.0835 2.1724 -0.1390 10.7775 -0.0000 0.0000 0.0000 -90.7726 -6.1109 21.4518 8.8898 -14.9846 -1.1714 -0.0000 -0.0000 35.1346 37.5248 -18.9572 -14.0092 -7.1250 0.0000 -0.0000 5.9080 6.6661 -5.2107 -0.0000 0.0000 0.0000 91.7528 -6.1171 -22.3431 -11.5079 19.0626 -1.9386 0.0000 0.0000 25.7463 -26.0156 -37.2230 16.4488 7.1250 -0.0000 -0.0000 12.2014 -69.8392 -7.2858
